<svg width="48" height="46" viewBox="0 0 48 46" fill="none" xmlns="http://www.w3.org/2000/svg">
<mask id="mask0_1706_176" style="mask-type:alpha" maskUnits="userSpaceOnUse" x="8" y="-1" width="46" height="47">
<rect x="8.20459" y="23.3283" width="32.3987" height="32.3987" transform="rotate(-46.832 8.20459 23.3283)" fill="#D9D9D9"/>
</mask>
<g mask="url(#mask0_1706_176)">
<path d="M39.9636 30.9079C38.9394 31.9998 37.774 32.8305 36.4674 33.4C35.1608 33.9694 33.8158 34.2762 32.4324 34.3205C31.049 34.3647 29.6872 34.1445 28.3469 33.6597C27.0066 33.1749 25.7905 32.4204 24.6986 31.3962C24.5584 31.2647 24.4854 31.1079 24.4796 30.9256C24.4738 30.7434 24.5366 30.5822 24.668 30.4421C24.7995 30.302 24.9563 30.229 25.1386 30.2231C25.3208 30.2173 25.482 30.2801 25.6221 30.4116C27.5421 32.2125 29.798 33.0715 32.3898 32.9886C34.9817 32.9057 37.1781 31.9043 38.979 29.9844C40.78 28.0644 41.639 25.8085 41.5561 23.2166C41.4732 20.6248 40.4718 18.4284 38.5518 16.6274C36.6319 14.8265 34.376 13.9675 31.7841 14.0504C29.1922 14.1333 26.9958 15.1347 25.1949 17.0546L24.8433 17.4295L27.2723 17.3518C27.4584 17.3459 27.6184 17.4017 27.7526 17.5191C27.8868 17.6368 27.959 17.7989 27.9692 18.0055C27.976 18.2158 27.9214 18.3847 27.8053 18.5121C27.6895 18.6395 27.5264 18.7066 27.3159 18.7133L23.6314 18.8128C23.3229 18.8226 23.0627 18.7281 22.8506 18.5292C22.6386 18.3304 22.5278 18.0768 22.5181 17.7684L22.4172 14.047C22.4112 13.861 22.4679 13.6999 22.5872 13.5638C22.7067 13.4279 22.8716 13.3565 23.0818 13.3498C23.2888 13.3469 23.4549 13.4024 23.5802 13.5165C23.7057 13.6306 23.7719 13.7929 23.7786 14.0035L23.8587 16.506L24.2103 16.1311C25.2345 15.0392 26.3999 14.2085 27.7065 13.6391C29.0131 13.0696 30.3581 12.7628 31.7415 12.7185C33.1249 12.6743 34.4868 12.8945 35.8271 13.3793C37.1674 13.8641 38.3835 14.6186 39.4754 15.6429C40.5673 16.6671 41.398 17.8325 41.9674 19.1391C42.5369 20.4457 42.8437 21.7906 42.888 23.174C42.9322 24.5574 42.7119 25.9193 42.2271 27.2596C41.7424 28.5999 40.9879 29.816 39.9636 30.9079Z" fill="#1C1B1F"/>
</g>
<path d="M11.3428 27.3967L9.68283 24.5467H8.58283V27.3967H7.67283V20.4267H9.92283C10.4495 20.4267 10.8928 20.5167 11.2528 20.6967C11.6195 20.8767 11.8928 21.12 12.0728 21.4267C12.2528 21.7333 12.3428 22.0833 12.3428 22.4767C12.3428 22.9567 12.2028 23.38 11.9228 23.7467C11.6495 24.1133 11.2362 24.3567 10.6828 24.4767L12.4328 27.3967H11.3428ZM8.58283 23.8167H9.92283C10.4162 23.8167 10.7862 23.6967 11.0328 23.4567C11.2795 23.21 11.4028 22.8833 11.4028 22.4767C11.4028 22.0633 11.2795 21.7433 11.0328 21.5167C10.7928 21.29 10.4228 21.1767 9.92283 21.1767H8.58283V23.8167ZM18.7568 24.4467C18.7568 24.62 18.7468 24.8033 18.7268 24.9967H14.3468C14.3801 25.5367 14.5635 25.96 14.8968 26.2667C15.2368 26.5667 15.6468 26.7167 16.1268 26.7167C16.5201 26.7167 16.8468 26.6267 17.1068 26.4467C17.3735 26.26 17.5601 26.0133 17.6668 25.7067H18.6468C18.5002 26.2333 18.2068 26.6633 17.7668 26.9967C17.3268 27.3233 16.7801 27.4867 16.1268 27.4867C15.6068 27.4867 15.1401 27.37 14.7268 27.1367C14.3201 26.9033 14.0001 26.5733 13.7668 26.1467C13.5335 25.7133 13.4168 25.2133 13.4168 24.6467C13.4168 24.08 13.5301 23.5833 13.7568 23.1567C13.9835 22.73 14.3001 22.4033 14.7068 22.1767C15.1201 21.9433 15.5935 21.8267 16.1268 21.8267C16.6468 21.8267 17.1068 21.94 17.5068 22.1667C17.9068 22.3933 18.2135 22.7067 18.4268 23.1067C18.6468 23.5 18.7568 23.9467 18.7568 24.4467ZM17.8168 24.2567C17.8168 23.91 17.7401 23.6133 17.5868 23.3667C17.4335 23.1133 17.2235 22.9233 16.9568 22.7967C16.6968 22.6633 16.4068 22.5967 16.0868 22.5967C15.6268 22.5967 15.2335 22.7433 14.9068 23.0367C14.5868 23.33 14.4035 23.7367 14.3568 24.2567H17.8168ZM21.898 27.4867C21.478 27.4867 21.1013 27.4167 20.768 27.2767C20.4347 27.13 20.1713 26.93 19.978 26.6767C19.7847 26.4167 19.678 26.12 19.658 25.7867H20.598C20.6247 26.06 20.7513 26.2833 20.978 26.4567C21.2113 26.63 21.5147 26.7167 21.888 26.7167C22.2347 26.7167 22.508 26.64 22.708 26.4867C22.908 26.3333 23.008 26.14 23.008 25.9067C23.008 25.6667 22.9013 25.49 22.688 25.3767C22.4747 25.2567 22.1447 25.14 21.698 25.0267C21.2913 24.92 20.958 24.8133 20.698 24.7067C20.4447 24.5933 20.2247 24.43 20.038 24.2167C19.858 23.9967 19.768 23.71 19.768 23.3567C19.768 23.0767 19.8513 22.82 20.018 22.5867C20.1847 22.3533 20.4213 22.17 20.728 22.0367C21.0347 21.8967 21.3847 21.8267 21.778 21.8267C22.3847 21.8267 22.8747 21.98 23.248 22.2867C23.6213 22.5933 23.8213 23.0133 23.848 23.5467H22.938C22.918 23.26 22.8013 23.03 22.588 22.8567C22.3813 22.6833 22.1013 22.5967 21.748 22.5967C21.4213 22.5967 21.1613 22.6667 20.968 22.8067C20.7747 22.9467 20.678 23.13 20.678 23.3567C20.678 23.5367 20.7347 23.6867 20.848 23.8067C20.968 23.92 21.1147 24.0133 21.288 24.0867C21.468 24.1533 21.7147 24.23 22.028 24.3167C22.4213 24.4233 22.7413 24.53 22.988 24.6367C23.2347 24.7367 23.4447 24.89 23.618 25.0967C23.798 25.3033 23.8913 25.5733 23.898 25.9067C23.898 26.2067 23.8147 26.4767 23.648 26.7167C23.4813 26.9567 23.2447 27.1467 22.938 27.2867C22.638 27.42 22.2913 27.4867 21.898 27.4867ZM30.1826 24.4467C30.1826 24.62 30.1726 24.8033 30.1526 24.9967H25.7726C25.8059 25.5367 25.9893 25.96 26.3226 26.2667C26.6626 26.5667 27.0726 26.7167 27.5526 26.7167C27.9459 26.7167 28.2726 26.6267 28.5326 26.4467C28.7993 26.26 28.9859 26.0133 29.0926 25.7067H30.0726C29.9259 26.2333 29.6326 26.6633 29.1926 26.9967C28.7526 27.3233 28.2059 27.4867 27.5526 27.4867C27.0326 27.4867 26.5659 27.37 26.1526 27.1367C25.7459 26.9033 25.4259 26.5733 25.1926 26.1467C24.9593 25.7133 24.8426 25.2133 24.8426 24.6467C24.8426 24.08 24.9559 23.5833 25.1826 23.1567C25.4093 22.73 25.7259 22.4033 26.1326 22.1767C26.5459 21.9433 27.0193 21.8267 27.5526 21.8267C28.0726 21.8267 28.5326 21.94 28.9326 22.1667C29.3326 22.3933 29.6393 22.7067 29.8526 23.1067C30.0726 23.5 30.1826 23.9467 30.1826 24.4467ZM29.2426 24.2567C29.2426 23.91 29.1659 23.6133 29.0126 23.3667C28.8593 23.1133 28.6493 22.9233 28.3826 22.7967C28.1226 22.6633 27.8326 22.5967 27.5126 22.5967C27.0526 22.5967 26.6593 22.7433 26.3326 23.0367C26.0126 23.33 25.8293 23.7367 25.7826 24.2567H29.2426ZM32.4938 22.6667V25.8967C32.4938 26.1633 32.5504 26.3533 32.6638 26.4667C32.7771 26.5733 32.9738 26.6267 33.2538 26.6267H33.9238V27.3967H33.1038C32.5971 27.3967 32.2171 27.28 31.9638 27.0467C31.7104 26.8133 31.5838 26.43 31.5838 25.8967V22.6667H30.8738V21.9167H31.5838V20.5367H32.4938V21.9167H33.9238V22.6667H32.4938Z" fill="black"/>
</svg>
