<?xml version="1.0" encoding="UTF-8"?>
<svg id="Layer_1" data-name="Layer 1" xmlns="http://www.w3.org/2000/svg" viewBox="0 0 595.28 595.28">
  <defs>
    <style>
      .cls-1 {
        fill: #231f20;
      }

      .cls-2 {
        fill: #3c2415;
      }

      .cls-3 {
        fill: #fdd700;
      }
    </style>
  </defs>
  <g>
    <circle class="cls-3" cx="297.64" cy="297.64" r="283.46"/>
    <path class="cls-2" d="M64.72,368.3l-.46.11c-5.91,1.48-10.73-1.63-12.6-9.09-2.01-8.04.67-12.45,8.34-14.37l.88-.22,1.7,6.79c-4.27,1.07-5.92,2.86-5.06,6.29l.09.38c.68,2.72,2.59,3.94,4.68,3.41l.21-.05c2.39-.6,3.4-1.87,2.84-6.81-.82-7.36.71-11.57,6.79-13.09l.42-.1c6.28-1.57,10.96,1.67,12.88,9.33,1.93,7.71-.49,12.63-8.37,14.6l-.38.09-1.7-6.79c4.11-1.03,5.4-3.13,4.62-6.27l-.09-.38c-.78-3.14-2.85-4.27-5.03-3.73l-.21.05c-2.35.59-3.34,2.13-2.79,7.02.82,7.36-.86,11.34-6.77,12.82Z"/>
    <path class="cls-2" d="M78.06,327.28c-.58-4.24-3.48-5.41-6.43-5.01l-.39-2.87.69-.09c3.59-.49,7.99,1.4,8.84,7.65.9,6.63-3.72,10.13-10.01,10.99l-1.03.14c-6.29.85-11.68-1.29-12.58-7.92-.85-6.25,3.06-9.26,6.74-9.76l.86-.12.39,2.87c-3.47.47-5.85,2.49-5.29,6.6.61,4.49,4.3,6,9.48,5.29l1.03-.14c5.18-.7,8.33-3.13,7.72-7.63Z"/>
    <path class="cls-2" d="M58.57,311.83c-1.86-1.32-3.37-3.6-3.5-7.22-.16-4.53,2.82-7.06,7.09-7.21l16.01-.57.11,3.02-15.58.56c-3.45.12-4.98,2.12-4.87,5.14.13,3.58,2.22,5.28,3.76,6.17l17.09-.61.11,3.02-34.52,1.23-.11-3.02,14.41-.51Z"/>
    <path class="cls-2" d="M67.28,292.13l-1.03-.07c-6.33-.41-11.19-3.63-10.75-10.35.44-6.72,5.66-9.28,12-8.87l1.03.07c6.33.41,11.19,3.63,10.75,10.35-.44,6.72-5.67,9.28-12,8.87ZM68.33,275.97l-1.03-.07c-5.21-.34-8.79,1.46-9.08,5.98-.3,4.52,3.02,6.77,8.23,7.11l1.03.07c5.21.34,8.79-1.46,9.08-5.98.29-4.52-3.02-6.77-8.23-7.11Z"/>
    <path class="cls-2" d="M69.06,268.36l-1.02-.17c-6.26-1.06-10.75-4.76-9.63-11.4,1.13-6.64,6.59-8.65,12.85-7.58l1.02.17c6.26,1.06,10.75,4.76,9.63,11.4-1.13,6.64-6.59,8.65-12.85,7.58ZM71.77,252.4l-1.02-.17c-5.15-.87-8.9.55-9.66,5.02-.76,4.47,2.31,7.05,7.46,7.92l1.02.17c5.15.87,8.9-.55,9.65-5.02.76-4.47-2.31-7.05-7.46-7.92Z"/>
    <path class="cls-2" d="M50.75,238.42l.72-2.94,33.54,8.23-.72,2.94-33.54-8.23Z"/>
    <path class="cls-2" d="M68.88,217.93l2.12-6.07,2.57.9-2.12,6.07,19.03,6.65-1,2.85-19.03-6.65-1.2,3.42-2.57-.9,1.2-3.42-5.01-1.75c-4.69-1.64-5.51-4.9-4.23-8.57.6-1.71,1.26-2.58,1.5-2.86l2.49.87c-.28.27-.87,1.3-1.18,2.19-.95,2.73-.64,4.44,2.79,5.64l4.65,1.62Z"/>
    <path class="cls-2" d="M83.69,211.9l-.95-.43c-5.79-2.61-9.2-7.32-6.43-13.46,2.77-6.14,8.56-6.7,14.35-4.09l.95.43c5.79,2.61,9.2,7.32,6.43,13.46s-8.56,6.7-14.35,4.09ZM90.35,197.14l-.95-.43c-4.76-2.15-8.75-1.72-10.61,2.42-1.86,4.13.45,7.4,5.21,9.55l.95.43c4.76,2.15,8.75,1.72,10.61-2.42,1.86-4.13-.45-7.4-5.21-9.55Z"/>
    <path class="cls-2" d="M88.04,175.27l2.53,1.41-.3.53c-1.68,3.02-.8,5.43.06,7l14.83,8.24-1.47,2.64-14.34-7.97-5.79-2.92,1.22-2.19,2.85,1.09c-1.07-1.98-1.44-4.6.05-7.28.15-.26.33-.51.35-.54Z"/>
    <path class="cls-2" d="M128.96,156.95l-4.41,5.92-23.26-3.75,5.57,3.88,11.33,8.43-3.95,5.3-27.02-20.11,4.41-5.92,23.24,3.78-5.57-3.88-11.33-8.43,3.97-5.33,27.02,20.11Z"/>
    <path class="cls-2" d="M139.04,141.49c.42,2.46-.13,5.5-2.84,8.4-2.86,3.06-6.41,3.05-9.09.54l-.31-.3c-3.62-3.39-2.1-7.11.03-10.2l3.94-5.78-.44-.41c-2.87-2.69-5.2-3.16-7.98-.2-2.95,3.15-1.8,5.59.37,7.62l-1.98,2.11-.28-.27c-2.52-2.36-4.54-6.33.06-11.24,4.34-4.63,8.19-3.69,11.88-.24l6.11,5.73,4.9,4.24-1.71,1.83-2.66-1.84ZM136.94,139.94l-4.57-4.28-3.76,5.59c-1.63,2.5-1.8,4.76.09,6.54l.28.26c1.48,1.39,3.72,1.71,5.82-.53,2.89-3.09,2.55-6.07,2.14-7.58Z"/>
    <path class="cls-2" d="M140.41,113.31l1.82,2.02-5.42,4.89,8.99,9.97c2.43,2.69,4.13,2.32,6.28.39.71-.64,1.43-1.58,1.57-1.94l1.76,1.95c-.17.33-.71,1.28-2.05,2.49-2.89,2.6-6.21,3.1-9.54-.58l-9.25-10.26-2.69,2.43-1.82-2.02,2.69-2.43-4.34-4.81,2.25-2.02,4.34,4.81,5.42-4.89Z"/>
    <path class="cls-2" d="M147.34,107.63l9.38,12.45c2.08,2.76,4.59,2.86,7.01,1.04,2.9-2.18,3.09-4.87,2.94-6.65l-10.29-13.65,2.41-1.82,9.87,13.1,4.11,5.02-2,1.51-2.3-2.27c.19,2.4-.79,5.19-3.89,7.53-3.65,2.75-7.4,1.74-9.97-1.68l-9.64-12.79,2.38-1.79Z"/>
    <path class="cls-2" d="M172.55,89.65l1.55,2.44-.51.32c-2.92,1.85-3.3,4.39-3.3,6.17l9.08,14.33-2.55,1.62-8.78-13.86-3.68-5.33,2.12-1.34,1.98,2.32c0-2.25.94-4.73,3.53-6.37.26-.16.53-.29.57-.31Z"/>
    <path class="cls-2" d="M184.89,97.6c2.45,4.37,5.77,6.13,9.82,4,4.05-2.14,4.42-5.5,3.27-7.68l2.56-1.35.08.15c1.65,3.13.97,8.13-4.72,11.13-6.11,3.22-11.12.11-14.09-5.51l-.44-.84c-2.96-5.61-2.7-11.51,3.22-14.63,5.92-3.12,10.85.03,13.82,5.65l.81,1.53-14.32,7.56ZM183.72,95.39l11.61-6.12c-2.47-4.31-5.73-6.15-9.59-4.12-3.82,2.01-4.22,5.79-2.02,10.24Z"/>
    <path class="cls-2" d="M211.18,95.18c1.58,3.6.81,6.06-2.11,7.34l-.73-1.66c1.62-.71,2.28-1.9,1.45-4.22l-1.86.82-1.56-3.56,3.56-1.56,1.25,2.85Z"/>
    <path class="cls-2" d="M229.18,53.91l17.79,29.9-7.15,2.15-3.66-6.47-7.9,2.38.56,7.41-7.19,2.16-1.67-34.75,9.22-2.77ZM227.8,75.69l5.29-1.59-6.22-11.07.93,12.66Z"/>
    <path class="cls-2" d="M257.87,79.65c4.21-.77,5.24-3.73,4.71-6.66l2.85-.52.12.68c.65,3.57-1.03,8.05-7.23,9.18-6.58,1.21-10.3-3.25-11.44-9.5l-.19-1.02c-1.14-6.24.75-11.73,7.33-12.93,6.2-1.13,9.39,2.63,10.06,6.28l.16.85-2.85.52c-.63-3.44-2.76-5.73-6.84-4.98-4.46.82-5.79,4.57-4.85,9.71l.19,1.02c.94,5.14,3.52,8.18,7.98,7.36Z"/>
    <path class="cls-2" d="M280.87,55.93l.26,2.71-7.26.7,1.28,13.37c.35,3.61,1.93,4.33,4.81,4.05.95-.09,2.09-.42,2.41-.62l.25,2.62c-.33.16-1.33.6-3.14.78-3.87.37-6.84-1.21-7.31-6.15l-1.32-13.76-3.61.35-.26-2.71,3.61-.35-.62-6.45,3.01-.29.62,6.45,7.27-.7Z"/>
    <path class="cls-2" d="M290.12,50.15l-3.88.15-.15-3.88,3.88-.15.15,3.88ZM286.87,55.68l3.02-.11.86,22.87-3.02.11-.86-22.87Z"/>
    <path class="cls-2" d="M295.85,67.22l.04-1.04c.21-6.34,3.27-11.3,10-11.07,6.73.23,9.45,5.37,9.24,11.71l-.04,1.04c-.21,6.34-3.27,11.3-10,11.07-6.73-.23-9.45-5.37-9.24-11.71ZM312.03,67.76l.04-1.04c.18-5.22-1.74-8.74-6.27-8.89-4.53-.15-6.67,3.23-6.85,8.45l-.04,1.04c-.18,5.22,1.74,8.74,6.27,8.89,4.53.15,6.67-3.23,6.85-8.45Z"/>
    <path class="cls-2" d="M333.06,81.11l2.09-15.44c.46-3.42-1.25-5.27-4.24-5.67-3.55-.48-5.58,1.29-6.72,2.66l-2.3,16.94-2.99-.41,2.2-16.26.61-6.45,2.48.34v3.27c1.59-1.83,4.21-3.17,8.11-2.65,4.49.61,6.48,3.97,5.9,8.21l-2.15,15.87-2.99-.41Z"/>
    <path class="cls-2" d="M344.73,82.6c-.8,3.85-2.85,5.41-5.98,4.75l.37-1.78c1.73.36,2.96-.22,3.63-2.6l-1.99-.41.79-3.8,3.8.79-.63,3.04Z"/>
    <path class="cls-2" d="M364.19,88.59l-6.7-2.01,9.69-32.26,6.7,2.01-9.69,32.26Z"/>
    <path class="cls-2" d="M382.16,95.13l5.63-14.53c1.25-3.22.01-5.41-2.81-6.5-3.34-1.29-5.72-.04-7.16,1.02l-6.17,15.94-2.82-1.09,5.92-15.3,2.1-6.13,2.34.9-.77,3.18c1.98-1.41,4.84-2.11,8.51-.69,4.23,1.64,5.37,5.37,3.83,9.35l-5.78,14.94-2.82-1.09Z"/>
    <path class="cls-2" d="M403.46,102.37c-1.92,1.01-4.39,1.3-7.24-.15-5.58-2.84-5.51-8.48-2.63-14.14l.47-.92c2.88-5.65,7.41-9.02,12.99-6.17,3.12,1.59,4.26,4.01,4.43,6.33l1.82-2.61,2.27,1.16-3.21,5.63-11.38,22.31-2.65-1.35,5.14-10.08ZM406.43,83.72c-3.85-1.96-7.18.12-9.6,4.85l-.47.92c-2.41,4.73-2.14,8.65,1.71,10.62,2.77,1.41,5.27.41,6.8-.51l5.14-10.08c-.16-1.78-.81-4.39-3.58-5.8Z"/>
    <path class="cls-2" d="M423.94,90.88l-8.45,13.09c-1.87,2.9-1.11,5.3,1.43,6.94,3.05,1.97,5.63,1.22,7.25.47l9.27-14.36,2.54,1.64-8.9,13.78-3.29,5.58-2.1-1.36,1.33-2.94c-2.19,1-5.15,1.05-8.41-1.06-3.85-2.48-4.18-6.34-1.86-9.93l8.68-13.46,2.5,1.62Z"/>
    <path class="cls-2" d="M441.64,102.89l2.42,1.81-13.73,18.3-2.42-1.81,13.73-18.3ZM447.64,100.65l-3.11-2.33,2.33-3.11,3.11,2.33-2.33,3.11Z"/>
    <path class="cls-2" d="M457.17,114.76l-1.85,2.22-.46-.39c-2.65-2.21-5.19-1.8-6.89-1.25l-10.87,13.03-2.32-1.94,10.52-12.59,3.95-5.14,1.92,1.6-1.61,2.6c2.15-.68,4.79-.55,7.15,1.41.23.19.44.42.47.45Z"/>
    <path class="cls-2" d="M471.64,129.04l2.32,2.26-21.24,10.04-8.95,4.54-2.5-2.44,9.2-4.3,9.5-21.49,2.32,2.26-8.38,17.93,17.75-8.8Z"/>
    <path class="cls-2" d="M461.93,151.19c-2.91,2.64-5.48,2.7-7.63.33l1.34-1.22c1.19,1.31,2.52,1.56,4.46.03l-1.36-1.5,2.88-2.61,2.61,2.88-2.3,2.09Z"/>
    <path class="cls-2" d="M480.78,171.13c-2.49-.05-5.38-1.15-7.72-4.36-2.47-3.38-1.8-6.86,1.16-9.03l.35-.26c4.01-2.93,7.38-.73,10.02,1.94l4.94,4.94.49-.36c3.17-2.32,4.07-4.52,1.68-7.8-2.55-3.49-5.15-2.81-7.56-1.06l-1.71-2.34.31-.23c2.79-2.04,7.06-3.28,11.04,2.16,3.74,5.13,2.1,8.73-1.98,11.71l-6.77,4.94-5.08,4.03-1.48-2.02,2.3-2.27ZM482.7,169.36l5.06-3.69-4.79-4.74c-2.15-2.07-4.35-2.66-6.44-1.13l-.31.23c-1.64,1.2-2.38,3.34-.57,5.81,2.49,3.42,5.49,3.64,7.06,3.51Z"/>
    <path class="cls-2" d="M489.71,191.57l13.44-7.9c2.98-1.75,3.37-4.24,1.84-6.84-1.82-3.09-4.46-3.59-6.25-3.64l-14.74,8.67-1.53-2.6,14.14-8.32,5.45-3.51,1.27,2.16-2.57,2.01c2.43.13,5.11,1.36,7.1,4.74,2.3,3.91.88,7.55-2.8,9.71l-13.81,8.12-1.53-2.61Z"/>
    <path class="cls-2" d="M517.92,203.19l12.99-5.95,1.26,2.75-25.52,11.69-5.78,2.94-1.06-2.32,2.61-1.67c-2.25-.25-4.6-1.55-6.04-4.69-2.61-5.69.94-10.07,6.71-12.72l.94-.43c5.77-2.64,11.41-2.47,14.01,3.22,1.33,2.9.92,5.32-.13,7.18ZM504.77,209.21l10.29-4.71c.98-1.49,2.08-3.95.79-6.77-1.8-3.93-5.71-4.37-10.53-2.16l-.94.43c-4.83,2.21-7.05,5.46-5.25,9.39,1.3,2.83,3.88,3.59,5.65,3.82Z"/>
    <path class="cls-2" d="M505.29,226.38l32.27-9.62,2,6.7-26.48,7.89,3.55,11.92-5.79,1.73-5.55-18.62Z"/>
    <path class="cls-2" d="M521.86,248.07c-4.9,1.06-7.56,3.72-6.7,8.22.85,4.5,3.97,5.84,6.39,5.38l.54,2.84-.17.03c-3.48.66-8.06-1.46-9.26-7.78-1.29-6.79,3.16-10.67,9.39-11.85l.93-.18c6.24-1.19,11.8.79,13.05,7.36s-3.21,10.37-9.45,11.56l-1.7.32-3.03-15.91ZM524.32,247.6l2.45,12.9c4.85-1.1,7.56-3.68,6.75-7.97-.81-4.24-4.3-5.73-9.2-4.93Z"/>
    <path class="cls-2" d="M519.76,283.51c-2.11-1.33-4.01-3.77-4.36-7.72-.37-4.17,2-6.81,5.66-7.13l.43-.04c4.94-.43,6.69,3.18,7.58,6.83l1.68,6.79.6-.05c3.91-.34,5.83-1.77,5.47-5.81-.38-4.3-2.96-5.07-5.93-4.81l-.25-2.88.39-.03c3.44-.3,7.74.84,8.33,7.55.55,6.32-2.72,8.56-7.75,9l-8.34.73-6.43.82-.22-2.49,3.14-.75ZM522.32,282.98l6.24-.55-1.66-6.53c-.77-2.88-2.34-4.52-4.93-4.29l-.39.03c-2.02.18-3.76,1.63-3.49,4.68.37,4.22,2.82,5.95,4.22,6.65Z"/>
    <path class="cls-2" d="M540.33,300.78l-2.89.05v-.6c-.07-3.45-2.04-5.11-3.56-6.03l-16.97.27-.05-3.02,16.4-.26,6.47-.36.04,2.5-3.01.48c1.92,1.18,3.55,3.27,3.6,6.33,0,.3-.03.61-.03.65Z"/>
    <path class="cls-2" d="M515.93,319.54l15.55,1.14c3.44.25,5.18-1.57,5.4-4.58.26-3.57-1.63-5.49-3.07-6.55l-17.05-1.25.22-3.01,16.36,1.2,6.48.21-.18,2.5-3.26.19c1.93,1.48,3.43,4.02,3.14,7.94-.33,4.52-3.57,6.71-7.83,6.4l-15.98-1.17.22-3.01Z"/>
    <path class="cls-2" d="M537.55,331l-.43,2.99-22.65-3.27.43-2.99,22.65,3.27ZM542.39,335.19l.56-3.85,3.85.56-.56,3.85-3.85-.56Z"/>
    <path class="cls-2" d="M510.7,350.11l15.23,3.32c3.37.73,5.35-.82,5.99-3.78.76-3.5-.84-5.66-2.12-6.91l-16.7-3.64.64-2.95,16.03,3.49,6.38,1.12-.53,2.45-3.25-.27c1.7,1.74,2.83,4.46,1.99,8.3-.97,4.43-4.47,6.14-8.65,5.23l-15.65-3.41.64-2.95Z"/>
    <path class="cls-2" d="M508.29,372.68c-1.25-1.73-1.85-4.06-.86-7.09,1.93-5.91,7.28-6.84,12.82-5.03l.9.3c5.46,1.79,9.3,5.72,7.37,11.63-1.09,3.32-3.26,4.84-5.49,5.38l2.78,1.36-.78,2.38-6.07-2.26-15.8-5.17c-4.88-1.6-7.69-5.11-5.66-11.3,2.05-6.28,6.4-7.21,10.88-5.75l.53.17-.9,2.75c-4.1-1.34-6.66-.46-7.99,3.61-1.37,4.18.27,6.4,4.25,7.7l4.02,1.32ZM525.74,372.26c1.33-4.06-1.06-7.03-5.53-8.49l-.9-.3c-4.55-1.49-8.15-.49-9.48,3.57-.98,2.99.41,5.27,1.51,6.63l9.23,3.02c1.73-.43,4.2-1.44,5.18-4.44Z"/>
    <path class="cls-1" d="M367.88,159.17c10.91.4,15.49,12.89,7.7,20.63.72,3.59,2.01,7.22,3.15,10.7l4.98,14.8c1.03,3.02,1.82,6.46,3.25,9.3l7.86.13,9.94-35.15c-3.91-4.7-4.43-12.05-.04-16.67,6.91-7.29,19.84-2.82,19.98,7.62.1,7.27-4.57,11.69-11.72,11.81l-8.33,27.24c-.6,1.92-1.11,3.93-1.92,5.78l6.75,3.42c24.65,12.64,29.3,48.82,3.71,62.68-.39.21-5.14,2.28-5.16,2.33-.22.46.39,7.64.39,8.86l.05,21.1c.01,5.07.3,10.34-.1,15.39-2.73,34.32-31.98,62.46-65.17,68.37-4.14.74-8.05.95-12.27.96h-119.27c-2.91-.01-5.91.14-8.8-.16-27.12-2.77-43.99-20.2-52.37-44.65l-2.16-6.91c-1.03-3.56-2.15-7.36-.36-10.87,2.16-4.24,7.47-6.83,11.76-3.94,2.82,1.9,4.77,5.53,6.97,8.12,5.19,6.14,12.16,11.78,19.21,15.51-.47-2.65-1.8-5.5-2.57-8.12-2.22-7.18-3.77-15-4.28-22.51-3.16-46.73,34.44-91.07,81.63-93.74,48.34-2.74,96.62,38.96,91.7,88.44-3.08,30.99-28.65,54.79-59.21,58.09-4.14.45-14.74-1.83-13.55,3.82.65,3.06,4.09,2.67,6.54,2.65,26.78-.19,51.59-14.23,64.35-38.18,10.88-20.42,9.82-42.4,2.08-63.49-.58-1.57-1.41-3.04-1.88-4.65l-.1-.35c-.46-1.51-.37-2.99-.36-4.55l.07-15.19c.42-18.5,11.36-34.46,28.97-40.92-1.67-3.45-2.8-7.05-4.04-10.67l-4.95-14.59c-.99-3.02-2.44-6.11-3.02-9.23-.09-.47-1.97-.29-2.47-.32-11.26-.63-12.59-22.03,3.06-22.93h0ZM267.03,260.63c-2.78.88-3.93,4.39-.8,5.65,1.91.77,4.54.6,6.6.82,27.12,2.95,50.04,29.71,40.06,56.97-10.93,29.87-53.58,36.24-66.54,7.66-3.12-6.88-3.27-14.16-.63-21.21,4.03-10.75,16.74-18.49,27.96-14.11,19.46,7.59,10.94,33.82-5.02,27.05-5.71-2.42-5.63-6.55-9.19-9.78-.89.4-1.67.76-2.42,1.4-2.06,8.8,8.84,15.39,16.45,15.29,18.1-.45,23.12-23.02,10.56-34.69-17.92-16.64-44.8-.09-46.27,22.21-1.18,17.97,11.77,32.77,28.67,37.35,22.81,6.19,47.23-10.05,53.09-32.32,8.57-32.55-20.46-64.13-52.51-62.3h0ZM408.02,251.23c-2.46,1.86-4.54,7.37-3.38,10.48.88.44,2.47.06,3.35-.23l.5-.18c5.95-3.2,5.37-11.56-.47-10.07h0ZM408.02,251.23"/>
  </g>
  <g>
    <path class="cls-1" d="M116.38,458h-6.6v-26.09h-7.34v-5.71h21.32v5.71h-7.38v26.09Z"/>
    <path class="cls-1" d="M149.2,426.21v31.8h-6.6v-13.37h-9.25v13.37h-6.61v-31.8h6.61v12.72h9.25v-12.72h6.6Z"/>
    <path class="cls-1" d="M173.21,426.21v5.71h-12.84v7.01h10.8v5.71h-10.8v7.66h12.84v5.71h-19.45v-31.8h19.45Z"/>
    <path class="cls-1" d="M184.62,435.58v-.45c0-5.75,3.95-9.46,11.21-9.46,7.83,0,11.25,3.47,11.25,10.93v.86h-6.6c0-4.16-1.26-6.08-4.61-6.08h-.37c-2.65,0-4.2,1.47-4.2,3.51v.21c0,2.32.94,3.55,5.58,4.16,6.93.94,10.44,3.3,10.44,9.21v.41c0,6.11-4.04,9.66-11.5,9.66s-11.46-3.34-11.46-11.01v-.37h6.6c0,3.99,1.63,5.67,4.69,5.67h.37c3.06,0,4.57-1.63,4.57-3.75v-.2c0-2.28-1.18-3.55-5.79-4.16-6.93-.94-10.19-3.38-10.19-9.13Z"/>
    <path class="cls-1" d="M234.27,458h-6.97l-10.27-19.73.2,6.4v13.33h-6.24v-31.8h6.97l10.23,19.73-.2-6.4v-13.33h6.28v31.8Z"/>
    <path class="cls-1" d="M254.16,426.12l7.95,31.88h-7.05l-1.55-6.85h-7.79l-1.51,6.85h-7.09l7.95-31.88h9.09ZM246.99,445.45h5.22l-2.61-11.7-2.61,11.7Z"/>
    <path class="cls-1" d="M271.77,458h-6.6v-31.8h6.6v31.8Z"/>
    <path class="cls-1" d="M276.5,458v-31.8h6.61v26.09h11.74v5.71h-18.35Z"/>
    <path class="cls-1" d="M329.17,458h-6.97l-10.27-19.73.2,6.4v13.33h-6.24v-31.8h6.97l10.23,19.73-.2-6.4v-13.33h6.28v31.8Z"/>
    <path class="cls-1" d="M353.18,426.21v5.71h-12.84v7.01h10.8v5.71h-10.8v7.66h12.84v5.71h-19.45v-31.8h19.45Z"/>
    <path class="cls-1" d="M369.44,458h-6.6v-26.09h-7.34v-5.71h21.32v5.71h-7.38v26.09Z"/>
    <path class="cls-1" d="M396.1,433.75l-4.61,24.34h-8.44l-5.26-31.88h6.89l3.06,22.87,4.28-22.87h8.19l4.28,22.87,3.06-22.87h6.89l-5.26,31.88h-8.48l-4.61-24.34Z"/>
    <path class="cls-1" d="M416.81,442.92v-1.63c0-11.01,3.87-15.61,12.11-15.61s12.15,4.61,12.15,15.61v1.63c0,11.01-3.87,15.61-12.15,15.61s-12.11-4.61-12.11-15.61ZM429.12,452.83c4.08,0,5.22-3.55,5.22-9.91v-1.63c0-6.36-1.14-9.91-5.22-9.91h-.37c-4.08,0-5.26,3.55-5.26,9.91v1.63c0,6.36,1.18,9.91,5.26,9.91h.37Z"/>
    <path class="cls-1" d="M451.54,458h-6.61v-31.8h10.44c5.18,0,11.05,1.34,11.05,9.78v.81c0,5.14-2.16,7.66-5.01,8.85l5.01,12.35h-7.13l-4.36-11.41h-3.38v11.41ZM455.66,440.88c1.79,0,4.08-.69,4.08-4.28v-.41c0-3.59-2.28-4.28-4.08-4.28h-4.12v8.97h4.12Z"/>
    <path class="cls-1" d="M476.94,438.68l7.83-12.47h7.99l-8.93,12.76,8.93,19.04h-7.34l-5.79-13-2.69,3.83v9.17h-6.61v-31.8h6.61v12.47Z"/>
  </g>
</svg>